<svg xmlns="http://www.w3.org/2000/svg" viewBox="0 0 24 24" fill="none" stroke="currentColor" stroke-width="1.5" stroke-linecap="round" stroke-linejoin="round">
  <path d="M17 21c-1.5.5-4 1-6 0" fill="var(--peach)" fill-opacity="0.15"/>
  <path d="M17 17c-2 1-5 1.5-7 0" fill="var(--peach)" fill-opacity="0.1"/>
  <path d="M4 3c0 8 2 13 8 13s8-5 8-13" fill="var(--peach)" fill-opacity="0.08"/>
  <path d="M4 3c0 8 2 13 8 13s8-5 8-13" stroke="currentColor"/>
  <path d="M8 5c0 4 1 7 4 7" stroke="var(--peach)"/>
  <path d="M16 12c3 0 4-3 4-7" stroke="var(--peach)"/>
  <line x1="8" y1="5" x2="16" y2="5" stroke="currentColor"/>
  <circle cx="12" cy="3" r="1" fill="var(--peach)" stroke="none"/>
</svg>
