<svg xmlns="http://www.w3.org/2000/svg" viewBox="0 0 24 24" fill="none" stroke="currentColor" stroke-width="1.5" stroke-linecap="round" stroke-linejoin="round">
  <path d="M7 16c-2 0-3-1-3-3V9c0-2 1-3 3-3" fill="var(--green)" fill-opacity="0.1"/>
  <path d="M17 8c2 0 3 1 3 3v4c0 2-1 3-3 3" fill="var(--green)" fill-opacity="0.1"/>
  <path d="M7 6V4c0-1 1-2 2-2h6c1 0 2 1 2 2v2" stroke="var(--green)"/>
  <path d="M17 18v2c0 1-1 2-2 2H9c-1 0-2-1-2-2v-2" stroke="var(--green)"/>
  <path d="M7 6V4c0-1 1-2 2-2h6c1 0 2 1 2 2v2" stroke="currentColor"/>
  <path d="M17 18v2c0 1-1 2-2 2H9c-1 0-2-1-2-2v-2" stroke="currentColor"/>
  <path d="M7 16c-2 0-3-1-3-3V9c0-2 1-3 3-3" stroke="currentColor"/>
  <path d="M17 8c2 0 3 1 3 3v4c0 2-1 3-3 3" stroke="currentColor"/>
  <circle cx="10" cy="10" r="1" fill="var(--green)" stroke="none"/>
  <circle cx="14" cy="14" r="1" fill="var(--green)" stroke="none"/>
</svg>
